<mxfile host="Electron" agent="Mozilla/5.0 (Windows NT 10.0; Win64; x64) AppleWebKit/537.36 (KHTML, like Gecko) draw.io/26.0.9 Chrome/128.0.6613.186 Electron/32.2.5 Safari/537.36" version="26.0.9">
  <diagram id="C5RBs43oDa-KdzZeNtuy" name="Page-1">
    <mxGraphModel dx="5736" dy="4513" grid="1" gridSize="10" guides="1" tooltips="1" connect="1" arrows="1" fold="1" page="1" pageScale="1" pageWidth="827" pageHeight="1169" math="0" shadow="0">
      <root>
        <mxCell id="WIyWlLk6GJQsqaUBKTNV-0" />
        <mxCell id="WIyWlLk6GJQsqaUBKTNV-1" parent="WIyWlLk6GJQsqaUBKTNV-0" />
        <mxCell id="2QtfB7DwklIOwOCEW9_u-2" value="" style="edgeStyle=orthogonalEdgeStyle;rounded=0;orthogonalLoop=1;jettySize=auto;html=1;" edge="1" parent="WIyWlLk6GJQsqaUBKTNV-1" source="2QtfB7DwklIOwOCEW9_u-0">
          <mxGeometry relative="1" as="geometry">
            <mxPoint x="380" y="110" as="targetPoint" />
          </mxGeometry>
        </mxCell>
        <mxCell id="2QtfB7DwklIOwOCEW9_u-0" value="Начало" style="ellipse;whiteSpace=wrap;html=1;" vertex="1" parent="WIyWlLk6GJQsqaUBKTNV-1">
          <mxGeometry x="320" y="40" width="120" height="40" as="geometry" />
        </mxCell>
        <mxCell id="2QtfB7DwklIOwOCEW9_u-5" value="" style="edgeStyle=orthogonalEdgeStyle;rounded=0;orthogonalLoop=1;jettySize=auto;html=1;" edge="1" parent="WIyWlLk6GJQsqaUBKTNV-1" source="2QtfB7DwklIOwOCEW9_u-3">
          <mxGeometry relative="1" as="geometry">
            <mxPoint x="380" y="160" as="targetPoint" />
          </mxGeometry>
        </mxCell>
        <mxCell id="2QtfB7DwklIOwOCEW9_u-3" value="int main()" style="shape=process;whiteSpace=wrap;html=1;backgroundOutline=1;" vertex="1" parent="WIyWlLk6GJQsqaUBKTNV-1">
          <mxGeometry x="320" y="110" width="120" height="30" as="geometry" />
        </mxCell>
        <mxCell id="2QtfB7DwklIOwOCEW9_u-6" value="srand(time(NULL));" style="rounded=0;whiteSpace=wrap;html=1;" vertex="1" parent="WIyWlLk6GJQsqaUBKTNV-1">
          <mxGeometry x="320" y="160" width="120" height="30" as="geometry" />
        </mxCell>
        <mxCell id="2QtfB7DwklIOwOCEW9_u-9" value="" style="edgeStyle=orthogonalEdgeStyle;rounded=0;orthogonalLoop=1;jettySize=auto;html=1;" edge="1" parent="WIyWlLk6GJQsqaUBKTNV-1">
          <mxGeometry relative="1" as="geometry">
            <mxPoint x="380" y="190" as="sourcePoint" />
            <mxPoint x="380" y="210" as="targetPoint" />
          </mxGeometry>
        </mxCell>
        <mxCell id="2QtfB7DwklIOwOCEW9_u-10" value="setlocale(LC_ALL, &quot;Russian&quot;);" style="rounded=0;whiteSpace=wrap;html=1;" vertex="1" parent="WIyWlLk6GJQsqaUBKTNV-1">
          <mxGeometry x="320" y="210" width="120" height="30" as="geometry" />
        </mxCell>
        <mxCell id="2QtfB7DwklIOwOCEW9_u-11" value="" style="edgeStyle=orthogonalEdgeStyle;rounded=0;orthogonalLoop=1;jettySize=auto;html=1;" edge="1" parent="WIyWlLk6GJQsqaUBKTNV-1">
          <mxGeometry relative="1" as="geometry">
            <mxPoint x="380" y="240" as="sourcePoint" />
            <mxPoint x="380" y="260" as="targetPoint" />
          </mxGeometry>
        </mxCell>
        <mxCell id="2QtfB7DwklIOwOCEW9_u-15" value="&lt;div&gt;#include &amp;lt;iostream&amp;gt;&lt;/div&gt;&lt;div&gt;#include &amp;lt;cstdlib&amp;gt;&lt;/div&gt;&lt;div&gt;#include &amp;lt;ctime&amp;gt;&lt;/div&gt;&lt;div&gt;using namespace std;&lt;/div&gt;&lt;div&gt;&lt;div&gt;const int n = 10;&lt;/div&gt;&lt;div&gt;int a[n];&lt;/div&gt;&lt;/div&gt;" style="strokeWidth=2;html=1;shape=mxgraph.flowchart.annotation_2;align=left;labelPosition=right;pointerEvents=1;" vertex="1" parent="WIyWlLk6GJQsqaUBKTNV-1">
          <mxGeometry x="460" y="40" width="50" height="100" as="geometry" />
        </mxCell>
        <mxCell id="2QtfB7DwklIOwOCEW9_u-16" value="" style="endArrow=none;dashed=1;html=1;rounded=0;entryX=-0.04;entryY=0.503;entryDx=0;entryDy=0;entryPerimeter=0;" edge="1" parent="WIyWlLk6GJQsqaUBKTNV-1" target="2QtfB7DwklIOwOCEW9_u-15">
          <mxGeometry width="50" height="50" relative="1" as="geometry">
            <mxPoint x="380" y="90" as="sourcePoint" />
            <mxPoint x="450" y="90" as="targetPoint" />
          </mxGeometry>
        </mxCell>
        <mxCell id="2QtfB7DwklIOwOCEW9_u-32" style="edgeStyle=orthogonalEdgeStyle;rounded=0;orthogonalLoop=1;jettySize=auto;html=1;exitX=1;exitY=0.5;exitDx=0;exitDy=0;entryX=0.538;entryY=-0.006;entryDx=0;entryDy=0;entryPerimeter=0;" edge="1" parent="WIyWlLk6GJQsqaUBKTNV-1" source="2QtfB7DwklIOwOCEW9_u-17" target="2QtfB7DwklIOwOCEW9_u-33">
          <mxGeometry relative="1" as="geometry">
            <mxPoint x="630" y="370" as="targetPoint" />
          </mxGeometry>
        </mxCell>
        <mxCell id="2QtfB7DwklIOwOCEW9_u-17" value="" style="verticalLabelPosition=bottom;verticalAlign=top;html=1;shape=hexagon;perimeter=hexagonPerimeter2;arcSize=6;size=0.11951219512195121;" vertex="1" parent="WIyWlLk6GJQsqaUBKTNV-1">
          <mxGeometry x="275.5" y="260" width="205" height="50" as="geometry" />
        </mxCell>
        <mxCell id="2QtfB7DwklIOwOCEW9_u-20" value="" style="edgeStyle=orthogonalEdgeStyle;rounded=0;orthogonalLoop=1;jettySize=auto;html=1;" edge="1" parent="WIyWlLk6GJQsqaUBKTNV-1">
          <mxGeometry relative="1" as="geometry">
            <mxPoint x="379.76" y="310" as="sourcePoint" />
            <mxPoint x="380" y="330" as="targetPoint" />
          </mxGeometry>
        </mxCell>
        <mxCell id="2QtfB7DwklIOwOCEW9_u-18" value="for (int i = 0; i &amp;lt; n; i++)" style="text;html=1;align=center;verticalAlign=middle;whiteSpace=wrap;rounded=0;" vertex="1" parent="WIyWlLk6GJQsqaUBKTNV-1">
          <mxGeometry x="320" y="270" width="120" height="30" as="geometry" />
        </mxCell>
        <mxCell id="2QtfB7DwklIOwOCEW9_u-23" value="" style="edgeStyle=orthogonalEdgeStyle;rounded=0;orthogonalLoop=1;jettySize=auto;html=1;entryX=0;entryY=0.5;entryDx=0;entryDy=0;" edge="1" parent="WIyWlLk6GJQsqaUBKTNV-1" target="2QtfB7DwklIOwOCEW9_u-17">
          <mxGeometry relative="1" as="geometry">
            <mxPoint x="380" y="360" as="sourcePoint" />
            <mxPoint x="260" y="330" as="targetPoint" />
            <Array as="points">
              <mxPoint x="380" y="410" />
              <mxPoint x="256" y="410" />
              <mxPoint x="256" y="285" />
            </Array>
          </mxGeometry>
        </mxCell>
        <mxCell id="2QtfB7DwklIOwOCEW9_u-21" value="a[i] = rand() % 25;" style="rounded=0;whiteSpace=wrap;html=1;" vertex="1" parent="WIyWlLk6GJQsqaUBKTNV-1">
          <mxGeometry x="320" y="330" width="120" height="30" as="geometry" />
        </mxCell>
        <mxCell id="2QtfB7DwklIOwOCEW9_u-33" value="cout &amp;lt;&amp;lt; &quot;Изначальный массив: &quot;;" style="shape=parallelogram;perimeter=parallelogramPerimeter;whiteSpace=wrap;html=1;fixedSize=1;" vertex="1" parent="WIyWlLk6GJQsqaUBKTNV-1">
          <mxGeometry x="510" y="370" width="210" height="40" as="geometry" />
        </mxCell>
        <mxCell id="2QtfB7DwklIOwOCEW9_u-34" value="" style="edgeStyle=orthogonalEdgeStyle;rounded=0;orthogonalLoop=1;jettySize=auto;html=1;" edge="1" parent="WIyWlLk6GJQsqaUBKTNV-1">
          <mxGeometry relative="1" as="geometry">
            <mxPoint x="624.0014285714285" y="410" as="sourcePoint" />
            <mxPoint x="624.0014285714285" y="430" as="targetPoint" />
          </mxGeometry>
        </mxCell>
        <mxCell id="2QtfB7DwklIOwOCEW9_u-35" style="edgeStyle=orthogonalEdgeStyle;rounded=0;orthogonalLoop=1;jettySize=auto;html=1;exitX=1;exitY=0.5;exitDx=0;exitDy=0;" edge="1" source="2QtfB7DwklIOwOCEW9_u-36" parent="WIyWlLk6GJQsqaUBKTNV-1">
          <mxGeometry relative="1" as="geometry">
            <mxPoint x="874.0014285714285" y="540" as="targetPoint" />
          </mxGeometry>
        </mxCell>
        <mxCell id="2QtfB7DwklIOwOCEW9_u-36" value="" style="verticalLabelPosition=bottom;verticalAlign=top;html=1;shape=hexagon;perimeter=hexagonPerimeter2;arcSize=6;size=0.11951219512195121;" vertex="1" parent="WIyWlLk6GJQsqaUBKTNV-1">
          <mxGeometry x="519.5014285714285" y="430" width="205" height="50" as="geometry" />
        </mxCell>
        <mxCell id="2QtfB7DwklIOwOCEW9_u-37" value="" style="edgeStyle=orthogonalEdgeStyle;rounded=0;orthogonalLoop=1;jettySize=auto;html=1;" edge="1" parent="WIyWlLk6GJQsqaUBKTNV-1">
          <mxGeometry relative="1" as="geometry">
            <mxPoint x="623.7614285714285" y="480" as="sourcePoint" />
            <mxPoint x="624.0014285714285" y="500" as="targetPoint" />
          </mxGeometry>
        </mxCell>
        <mxCell id="2QtfB7DwklIOwOCEW9_u-38" value="for (int i = 0; i &amp;lt; n; i++)" style="text;html=1;align=center;verticalAlign=middle;whiteSpace=wrap;rounded=0;" vertex="1" parent="WIyWlLk6GJQsqaUBKTNV-1">
          <mxGeometry x="564.0014285714285" y="440" width="120" height="30" as="geometry" />
        </mxCell>
        <mxCell id="2QtfB7DwklIOwOCEW9_u-39" value="" style="edgeStyle=orthogonalEdgeStyle;rounded=0;orthogonalLoop=1;jettySize=auto;html=1;entryX=0;entryY=0.5;entryDx=0;entryDy=0;" edge="1" target="2QtfB7DwklIOwOCEW9_u-36" parent="WIyWlLk6GJQsqaUBKTNV-1">
          <mxGeometry relative="1" as="geometry">
            <mxPoint x="624.0014285714285" y="530" as="sourcePoint" />
            <mxPoint x="504.0014285714285" y="500" as="targetPoint" />
            <Array as="points">
              <mxPoint x="624.0014285714285" y="580" />
              <mxPoint x="500.0014285714285" y="580" />
              <mxPoint x="500.0014285714285" y="455" />
            </Array>
          </mxGeometry>
        </mxCell>
        <mxCell id="2QtfB7DwklIOwOCEW9_u-41" value="cout &amp;lt;&amp;lt; a[i] &amp;lt;&amp;lt; &#39; &#39;;" style="shape=parallelogram;perimeter=parallelogramPerimeter;whiteSpace=wrap;html=1;fixedSize=1;" vertex="1" parent="WIyWlLk6GJQsqaUBKTNV-1">
          <mxGeometry x="519.5" y="500" width="210" height="40" as="geometry" />
        </mxCell>
        <mxCell id="2QtfB7DwklIOwOCEW9_u-43" style="edgeStyle=orthogonalEdgeStyle;rounded=0;orthogonalLoop=1;jettySize=auto;html=1;exitX=1;exitY=0.5;exitDx=0;exitDy=0;" edge="1" source="2QtfB7DwklIOwOCEW9_u-44" parent="WIyWlLk6GJQsqaUBKTNV-1">
          <mxGeometry relative="1" as="geometry">
            <mxPoint x="1330" y="660" as="targetPoint" />
            <Array as="points">
              <mxPoint x="1330" y="565" />
              <mxPoint x="1330" y="640" />
            </Array>
          </mxGeometry>
        </mxCell>
        <mxCell id="2QtfB7DwklIOwOCEW9_u-44" value="" style="verticalLabelPosition=bottom;verticalAlign=top;html=1;shape=hexagon;perimeter=hexagonPerimeter2;arcSize=6;size=0.11951219512195121;" vertex="1" parent="WIyWlLk6GJQsqaUBKTNV-1">
          <mxGeometry x="769.5014285714285" y="540" width="205" height="50" as="geometry" />
        </mxCell>
        <mxCell id="2QtfB7DwklIOwOCEW9_u-45" value="" style="edgeStyle=orthogonalEdgeStyle;rounded=0;orthogonalLoop=1;jettySize=auto;html=1;" edge="1" parent="WIyWlLk6GJQsqaUBKTNV-1">
          <mxGeometry relative="1" as="geometry">
            <mxPoint x="873.7614285714285" y="590" as="sourcePoint" />
            <mxPoint x="874.0014285714285" y="610" as="targetPoint" />
          </mxGeometry>
        </mxCell>
        <mxCell id="2QtfB7DwklIOwOCEW9_u-46" value="for (int i = 1; i &amp;lt; n; i++)&amp;nbsp;" style="text;html=1;align=center;verticalAlign=middle;whiteSpace=wrap;rounded=0;" vertex="1" parent="WIyWlLk6GJQsqaUBKTNV-1">
          <mxGeometry x="814" y="550" width="126" height="30" as="geometry" />
        </mxCell>
        <mxCell id="2QtfB7DwklIOwOCEW9_u-48" value="int t = a[i];" style="rounded=0;whiteSpace=wrap;html=1;" vertex="1" parent="WIyWlLk6GJQsqaUBKTNV-1">
          <mxGeometry x="814.0014285714285" y="610" width="120" height="30" as="geometry" />
        </mxCell>
        <mxCell id="2QtfB7DwklIOwOCEW9_u-52" style="edgeStyle=orthogonalEdgeStyle;rounded=0;orthogonalLoop=1;jettySize=auto;html=1;exitX=0.5;exitY=1;exitDx=0;exitDy=0;entryX=0.5;entryY=0;entryDx=0;entryDy=0;" edge="1" parent="WIyWlLk6GJQsqaUBKTNV-1" source="2QtfB7DwklIOwOCEW9_u-49" target="2QtfB7DwklIOwOCEW9_u-51">
          <mxGeometry relative="1" as="geometry" />
        </mxCell>
        <mxCell id="2QtfB7DwklIOwOCEW9_u-49" value="int j = i - 1;" style="rounded=0;whiteSpace=wrap;html=1;" vertex="1" parent="WIyWlLk6GJQsqaUBKTNV-1">
          <mxGeometry x="817.0014285714285" y="670" width="120" height="30" as="geometry" />
        </mxCell>
        <mxCell id="2QtfB7DwklIOwOCEW9_u-50" style="edgeStyle=orthogonalEdgeStyle;rounded=0;orthogonalLoop=1;jettySize=auto;html=1;entryX=0.476;entryY=0.067;entryDx=0;entryDy=0;entryPerimeter=0;" edge="1" parent="WIyWlLk6GJQsqaUBKTNV-1" source="2QtfB7DwklIOwOCEW9_u-48" target="2QtfB7DwklIOwOCEW9_u-49">
          <mxGeometry relative="1" as="geometry" />
        </mxCell>
        <mxCell id="2QtfB7DwklIOwOCEW9_u-53" style="edgeStyle=orthogonalEdgeStyle;rounded=0;orthogonalLoop=1;jettySize=auto;html=1;exitX=0.5;exitY=1;exitDx=0;exitDy=0;" edge="1" parent="WIyWlLk6GJQsqaUBKTNV-1" source="2QtfB7DwklIOwOCEW9_u-51">
          <mxGeometry relative="1" as="geometry">
            <mxPoint x="875.0952380952381" y="840" as="targetPoint" />
          </mxGeometry>
        </mxCell>
        <mxCell id="2QtfB7DwklIOwOCEW9_u-58" style="edgeStyle=orthogonalEdgeStyle;rounded=0;orthogonalLoop=1;jettySize=auto;html=1;exitX=1;exitY=0.5;exitDx=0;exitDy=0;" edge="1" parent="WIyWlLk6GJQsqaUBKTNV-1" source="2QtfB7DwklIOwOCEW9_u-51">
          <mxGeometry relative="1" as="geometry">
            <mxPoint x="1039.9999999999998" y="840" as="targetPoint" />
          </mxGeometry>
        </mxCell>
        <mxCell id="2QtfB7DwklIOwOCEW9_u-51" value="while (j &amp;gt;= 0 &amp;amp;&amp;amp; a[j] &amp;gt; t)&amp;nbsp;" style="rhombus;whiteSpace=wrap;html=1;" vertex="1" parent="WIyWlLk6GJQsqaUBKTNV-1">
          <mxGeometry x="800" y="730" width="150" height="80" as="geometry" />
        </mxCell>
        <mxCell id="2QtfB7DwklIOwOCEW9_u-54" value="a[j + 1] = a[j];" style="rounded=0;whiteSpace=wrap;html=1;" vertex="1" parent="WIyWlLk6GJQsqaUBKTNV-1">
          <mxGeometry x="817.0014285714285" y="840" width="120" height="30" as="geometry" />
        </mxCell>
        <mxCell id="2QtfB7DwklIOwOCEW9_u-55" style="edgeStyle=orthogonalEdgeStyle;rounded=0;orthogonalLoop=1;jettySize=auto;html=1;exitX=0.5;exitY=1;exitDx=0;exitDy=0;" edge="1" parent="WIyWlLk6GJQsqaUBKTNV-1">
          <mxGeometry relative="1" as="geometry">
            <mxPoint x="875.0952380952381" y="900" as="targetPoint" />
            <mxPoint x="875" y="870" as="sourcePoint" />
          </mxGeometry>
        </mxCell>
        <mxCell id="2QtfB7DwklIOwOCEW9_u-57" style="edgeStyle=orthogonalEdgeStyle;rounded=0;orthogonalLoop=1;jettySize=auto;html=1;exitX=0.5;exitY=1;exitDx=0;exitDy=0;entryX=0;entryY=0.5;entryDx=0;entryDy=0;" edge="1" parent="WIyWlLk6GJQsqaUBKTNV-1" source="2QtfB7DwklIOwOCEW9_u-56" target="2QtfB7DwklIOwOCEW9_u-51">
          <mxGeometry relative="1" as="geometry" />
        </mxCell>
        <mxCell id="2QtfB7DwklIOwOCEW9_u-56" value="j--;" style="rounded=0;whiteSpace=wrap;html=1;" vertex="1" parent="WIyWlLk6GJQsqaUBKTNV-1">
          <mxGeometry x="817.0014285714285" y="900" width="120" height="30" as="geometry" />
        </mxCell>
        <mxCell id="2QtfB7DwklIOwOCEW9_u-60" style="edgeStyle=orthogonalEdgeStyle;rounded=0;orthogonalLoop=1;jettySize=auto;html=1;exitX=0.5;exitY=1;exitDx=0;exitDy=0;entryX=0;entryY=0.5;entryDx=0;entryDy=0;" edge="1" parent="WIyWlLk6GJQsqaUBKTNV-1" source="2QtfB7DwklIOwOCEW9_u-59" target="2QtfB7DwklIOwOCEW9_u-44">
          <mxGeometry relative="1" as="geometry">
            <Array as="points">
              <mxPoint x="1035" y="970" />
              <mxPoint x="749" y="970" />
              <mxPoint x="749" y="565" />
            </Array>
          </mxGeometry>
        </mxCell>
        <mxCell id="2QtfB7DwklIOwOCEW9_u-59" value="a[j + 1] = t;" style="rounded=0;whiteSpace=wrap;html=1;" vertex="1" parent="WIyWlLk6GJQsqaUBKTNV-1">
          <mxGeometry x="974.5014285714285" y="840" width="120" height="30" as="geometry" />
        </mxCell>
        <mxCell id="2QtfB7DwklIOwOCEW9_u-61" value="cout &amp;lt;&amp;lt; endl;" style="shape=parallelogram;perimeter=parallelogramPerimeter;whiteSpace=wrap;html=1;fixedSize=1;" vertex="1" parent="WIyWlLk6GJQsqaUBKTNV-1">
          <mxGeometry x="1220" y="659.97" width="210" height="40" as="geometry" />
        </mxCell>
        <mxCell id="2QtfB7DwklIOwOCEW9_u-62" value="" style="edgeStyle=orthogonalEdgeStyle;rounded=0;orthogonalLoop=1;jettySize=auto;html=1;" edge="1" parent="WIyWlLk6GJQsqaUBKTNV-1">
          <mxGeometry relative="1" as="geometry">
            <mxPoint x="1334.2614285714285" y="699.97" as="sourcePoint" />
            <mxPoint x="1334.5014285714285" y="719.97" as="targetPoint" />
          </mxGeometry>
        </mxCell>
        <mxCell id="2QtfB7DwklIOwOCEW9_u-63" value="cout &amp;lt;&amp;lt; &quot;Отсортированный массив: &quot;;" style="shape=parallelogram;perimeter=parallelogramPerimeter;whiteSpace=wrap;html=1;fixedSize=1;" vertex="1" parent="WIyWlLk6GJQsqaUBKTNV-1">
          <mxGeometry x="1210" y="719.97" width="240" height="40" as="geometry" />
        </mxCell>
        <mxCell id="2QtfB7DwklIOwOCEW9_u-64" value="" style="edgeStyle=orthogonalEdgeStyle;rounded=0;orthogonalLoop=1;jettySize=auto;html=1;" edge="1" parent="WIyWlLk6GJQsqaUBKTNV-1">
          <mxGeometry relative="1" as="geometry">
            <mxPoint x="1334.0014285714285" y="759.97" as="sourcePoint" />
            <mxPoint x="1334.0014285714285" y="779.97" as="targetPoint" />
          </mxGeometry>
        </mxCell>
        <mxCell id="2QtfB7DwklIOwOCEW9_u-65" style="edgeStyle=orthogonalEdgeStyle;rounded=0;orthogonalLoop=1;jettySize=auto;html=1;exitX=1;exitY=0.5;exitDx=0;exitDy=0;" edge="1" source="2QtfB7DwklIOwOCEW9_u-66" parent="WIyWlLk6GJQsqaUBKTNV-1">
          <mxGeometry relative="1" as="geometry">
            <mxPoint x="1584.0014285714285" y="889.97" as="targetPoint" />
          </mxGeometry>
        </mxCell>
        <mxCell id="2QtfB7DwklIOwOCEW9_u-66" value="" style="verticalLabelPosition=bottom;verticalAlign=top;html=1;shape=hexagon;perimeter=hexagonPerimeter2;arcSize=6;size=0.11951219512195121;" vertex="1" parent="WIyWlLk6GJQsqaUBKTNV-1">
          <mxGeometry x="1229.5014285714285" y="779.97" width="205" height="50" as="geometry" />
        </mxCell>
        <mxCell id="2QtfB7DwklIOwOCEW9_u-67" value="" style="edgeStyle=orthogonalEdgeStyle;rounded=0;orthogonalLoop=1;jettySize=auto;html=1;" edge="1" parent="WIyWlLk6GJQsqaUBKTNV-1">
          <mxGeometry relative="1" as="geometry">
            <mxPoint x="1333.7614285714285" y="829.97" as="sourcePoint" />
            <mxPoint x="1334.0014285714285" y="849.97" as="targetPoint" />
          </mxGeometry>
        </mxCell>
        <mxCell id="2QtfB7DwklIOwOCEW9_u-68" value="for (int i = 0; i &amp;lt; n; i++)" style="text;html=1;align=center;verticalAlign=middle;whiteSpace=wrap;rounded=0;" vertex="1" parent="WIyWlLk6GJQsqaUBKTNV-1">
          <mxGeometry x="1274.0014285714285" y="789.97" width="120" height="30" as="geometry" />
        </mxCell>
        <mxCell id="2QtfB7DwklIOwOCEW9_u-69" value="" style="edgeStyle=orthogonalEdgeStyle;rounded=0;orthogonalLoop=1;jettySize=auto;html=1;entryX=0;entryY=0.5;entryDx=0;entryDy=0;" edge="1" target="2QtfB7DwklIOwOCEW9_u-66" parent="WIyWlLk6GJQsqaUBKTNV-1">
          <mxGeometry relative="1" as="geometry">
            <mxPoint x="1334.0014285714285" y="879.97" as="sourcePoint" />
            <mxPoint x="1214.0014285714285" y="849.97" as="targetPoint" />
            <Array as="points">
              <mxPoint x="1334.0014285714285" y="929.97" />
              <mxPoint x="1210.0014285714285" y="929.97" />
              <mxPoint x="1210.0014285714285" y="804.97" />
            </Array>
          </mxGeometry>
        </mxCell>
        <mxCell id="2QtfB7DwklIOwOCEW9_u-71" value="cout &amp;lt;&amp;lt; a[i] &amp;lt;&amp;lt; &#39; &#39;;" style="shape=parallelogram;perimeter=parallelogramPerimeter;whiteSpace=wrap;html=1;fixedSize=1;" vertex="1" parent="WIyWlLk6GJQsqaUBKTNV-1">
          <mxGeometry x="1224.5" y="850" width="210" height="40" as="geometry" />
        </mxCell>
        <mxCell id="2QtfB7DwklIOwOCEW9_u-72" value="return 0;" style="ellipse;whiteSpace=wrap;html=1;" vertex="1" parent="WIyWlLk6GJQsqaUBKTNV-1">
          <mxGeometry x="1520" y="890" width="120" height="60" as="geometry" />
        </mxCell>
        <mxCell id="2QtfB7DwklIOwOCEW9_u-73" value="&lt;font style=&quot;font-size: 26px; color: rgb(255, 0, 0);&quot;&gt;МЕТОД ВСТАВКИ&lt;/font&gt;" style="text;html=1;align=center;verticalAlign=middle;resizable=0;points=[];autosize=1;strokeColor=none;fillColor=none;" vertex="1" parent="WIyWlLk6GJQsqaUBKTNV-1">
          <mxGeometry x="290" y="-27" width="240" height="40" as="geometry" />
        </mxCell>
        <mxCell id="2QtfB7DwklIOwOCEW9_u-74" value="&lt;font style=&quot;font-size: 26px; color: rgb(255, 0, 0);&quot;&gt;МЕТОД ПУЗЫРЬКА&lt;/font&gt;" style="text;html=1;align=center;verticalAlign=middle;resizable=0;points=[];autosize=1;strokeColor=none;fillColor=none;" vertex="1" parent="WIyWlLk6GJQsqaUBKTNV-1">
          <mxGeometry x="1990" y="13" width="260" height="40" as="geometry" />
        </mxCell>
        <mxCell id="2QtfB7DwklIOwOCEW9_u-75" value="{" style="text;html=1;align=center;verticalAlign=middle;resizable=0;points=[];autosize=1;strokeColor=none;fillColor=none;" vertex="1" parent="WIyWlLk6GJQsqaUBKTNV-1">
          <mxGeometry x="325" y="78" width="30" height="30" as="geometry" />
        </mxCell>
        <mxCell id="2QtfB7DwklIOwOCEW9_u-76" value="{" style="text;html=1;align=center;verticalAlign=middle;resizable=0;points=[];autosize=1;strokeColor=none;fillColor=none;" vertex="1" parent="WIyWlLk6GJQsqaUBKTNV-1">
          <mxGeometry x="780" y="590" width="30" height="30" as="geometry" />
        </mxCell>
        <mxCell id="2QtfB7DwklIOwOCEW9_u-77" value="{" style="text;html=1;align=center;verticalAlign=middle;resizable=0;points=[];autosize=1;strokeColor=none;fillColor=none;" vertex="1" parent="WIyWlLk6GJQsqaUBKTNV-1">
          <mxGeometry x="827" y="799.97" width="30" height="30" as="geometry" />
        </mxCell>
        <mxCell id="2QtfB7DwklIOwOCEW9_u-78" value="}" style="text;html=1;align=center;verticalAlign=middle;resizable=0;points=[];autosize=1;strokeColor=none;fillColor=none;" vertex="1" parent="WIyWlLk6GJQsqaUBKTNV-1">
          <mxGeometry x="1055" y="898" width="30" height="30" as="geometry" />
        </mxCell>
        <mxCell id="2QtfB7DwklIOwOCEW9_u-79" value="}" style="text;html=1;align=center;verticalAlign=middle;resizable=0;points=[];autosize=1;strokeColor=none;fillColor=none;" vertex="1" parent="WIyWlLk6GJQsqaUBKTNV-1">
          <mxGeometry x="880" y="930" width="30" height="30" as="geometry" />
        </mxCell>
        <mxCell id="2QtfB7DwklIOwOCEW9_u-80" value="}" style="text;html=1;align=center;verticalAlign=middle;resizable=0;points=[];autosize=1;strokeColor=none;fillColor=none;" vertex="1" parent="WIyWlLk6GJQsqaUBKTNV-1">
          <mxGeometry x="1624" y="940" width="30" height="30" as="geometry" />
        </mxCell>
        <mxCell id="2QtfB7DwklIOwOCEW9_u-82" value="" style="edgeStyle=orthogonalEdgeStyle;rounded=0;orthogonalLoop=1;jettySize=auto;html=1;" edge="1" parent="WIyWlLk6GJQsqaUBKTNV-1" source="2QtfB7DwklIOwOCEW9_u-83">
          <mxGeometry relative="1" as="geometry">
            <mxPoint x="2084" y="169.97" as="targetPoint" />
          </mxGeometry>
        </mxCell>
        <mxCell id="2QtfB7DwklIOwOCEW9_u-83" value="Начало" style="ellipse;whiteSpace=wrap;html=1;" vertex="1" parent="WIyWlLk6GJQsqaUBKTNV-1">
          <mxGeometry x="2024.0000000000002" y="99.97" width="120" height="40" as="geometry" />
        </mxCell>
        <mxCell id="2QtfB7DwklIOwOCEW9_u-84" value="" style="edgeStyle=orthogonalEdgeStyle;rounded=0;orthogonalLoop=1;jettySize=auto;html=1;" edge="1" parent="WIyWlLk6GJQsqaUBKTNV-1" source="2QtfB7DwklIOwOCEW9_u-85">
          <mxGeometry relative="1" as="geometry">
            <mxPoint x="2084" y="219.97" as="targetPoint" />
          </mxGeometry>
        </mxCell>
        <mxCell id="2QtfB7DwklIOwOCEW9_u-85" value="int main()" style="shape=process;whiteSpace=wrap;html=1;backgroundOutline=1;" vertex="1" parent="WIyWlLk6GJQsqaUBKTNV-1">
          <mxGeometry x="2024.0000000000002" y="169.97" width="120" height="30" as="geometry" />
        </mxCell>
        <mxCell id="2QtfB7DwklIOwOCEW9_u-86" value="srand(time(NULL));" style="rounded=0;whiteSpace=wrap;html=1;" vertex="1" parent="WIyWlLk6GJQsqaUBKTNV-1">
          <mxGeometry x="2024.0000000000002" y="219.97" width="120" height="30" as="geometry" />
        </mxCell>
        <mxCell id="2QtfB7DwklIOwOCEW9_u-87" value="" style="edgeStyle=orthogonalEdgeStyle;rounded=0;orthogonalLoop=1;jettySize=auto;html=1;" edge="1" parent="WIyWlLk6GJQsqaUBKTNV-1">
          <mxGeometry relative="1" as="geometry">
            <mxPoint x="2084" y="249.97000000000003" as="sourcePoint" />
            <mxPoint x="2084" y="269.97" as="targetPoint" />
          </mxGeometry>
        </mxCell>
        <mxCell id="2QtfB7DwklIOwOCEW9_u-88" value="setlocale(LC_ALL, &quot;Russian&quot;);" style="rounded=0;whiteSpace=wrap;html=1;" vertex="1" parent="WIyWlLk6GJQsqaUBKTNV-1">
          <mxGeometry x="2024.0000000000002" y="269.97" width="120" height="30" as="geometry" />
        </mxCell>
        <mxCell id="2QtfB7DwklIOwOCEW9_u-89" value="" style="edgeStyle=orthogonalEdgeStyle;rounded=0;orthogonalLoop=1;jettySize=auto;html=1;" edge="1" parent="WIyWlLk6GJQsqaUBKTNV-1">
          <mxGeometry relative="1" as="geometry">
            <mxPoint x="2084" y="299.97" as="sourcePoint" />
            <mxPoint x="2084" y="319.97" as="targetPoint" />
          </mxGeometry>
        </mxCell>
        <mxCell id="2QtfB7DwklIOwOCEW9_u-90" value="&lt;div&gt;#include &amp;lt;iostream&amp;gt;&lt;/div&gt;&lt;div&gt;#include &amp;lt;cstdlib&amp;gt;&lt;/div&gt;&lt;div&gt;#include &amp;lt;ctime&amp;gt;&lt;/div&gt;&lt;div&gt;using namespace std;&lt;/div&gt;&lt;div&gt;&lt;div&gt;const int n = 10;&lt;/div&gt;&lt;div&gt;int a[n];&lt;/div&gt;&lt;/div&gt;" style="strokeWidth=2;html=1;shape=mxgraph.flowchart.annotation_2;align=left;labelPosition=right;pointerEvents=1;" vertex="1" parent="WIyWlLk6GJQsqaUBKTNV-1">
          <mxGeometry x="2164" y="99.97" width="50" height="100" as="geometry" />
        </mxCell>
        <mxCell id="2QtfB7DwklIOwOCEW9_u-91" value="" style="endArrow=none;dashed=1;html=1;rounded=0;entryX=-0.04;entryY=0.503;entryDx=0;entryDy=0;entryPerimeter=0;" edge="1" parent="WIyWlLk6GJQsqaUBKTNV-1" target="2QtfB7DwklIOwOCEW9_u-90">
          <mxGeometry width="50" height="50" relative="1" as="geometry">
            <mxPoint x="2084" y="149.97" as="sourcePoint" />
            <mxPoint x="2154" y="149.97" as="targetPoint" />
          </mxGeometry>
        </mxCell>
        <mxCell id="2QtfB7DwklIOwOCEW9_u-92" style="edgeStyle=orthogonalEdgeStyle;rounded=0;orthogonalLoop=1;jettySize=auto;html=1;exitX=1;exitY=0.5;exitDx=0;exitDy=0;entryX=0.538;entryY=-0.006;entryDx=0;entryDy=0;entryPerimeter=0;" edge="1" parent="WIyWlLk6GJQsqaUBKTNV-1" source="2QtfB7DwklIOwOCEW9_u-93" target="2QtfB7DwklIOwOCEW9_u-98">
          <mxGeometry relative="1" as="geometry">
            <mxPoint x="2334" y="429.97" as="targetPoint" />
          </mxGeometry>
        </mxCell>
        <mxCell id="2QtfB7DwklIOwOCEW9_u-93" value="" style="verticalLabelPosition=bottom;verticalAlign=top;html=1;shape=hexagon;perimeter=hexagonPerimeter2;arcSize=6;size=0.11951219512195121;" vertex="1" parent="WIyWlLk6GJQsqaUBKTNV-1">
          <mxGeometry x="1979.5000000000002" y="319.97" width="205" height="50" as="geometry" />
        </mxCell>
        <mxCell id="2QtfB7DwklIOwOCEW9_u-94" value="" style="edgeStyle=orthogonalEdgeStyle;rounded=0;orthogonalLoop=1;jettySize=auto;html=1;" edge="1" parent="WIyWlLk6GJQsqaUBKTNV-1">
          <mxGeometry relative="1" as="geometry">
            <mxPoint x="2083.76" y="369.97" as="sourcePoint" />
            <mxPoint x="2084" y="389.97" as="targetPoint" />
          </mxGeometry>
        </mxCell>
        <mxCell id="2QtfB7DwklIOwOCEW9_u-95" value="for (int i = 0; i &amp;lt; n; i++)" style="text;html=1;align=center;verticalAlign=middle;whiteSpace=wrap;rounded=0;" vertex="1" parent="WIyWlLk6GJQsqaUBKTNV-1">
          <mxGeometry x="2024.0000000000002" y="329.97" width="120" height="30" as="geometry" />
        </mxCell>
        <mxCell id="2QtfB7DwklIOwOCEW9_u-96" value="" style="edgeStyle=orthogonalEdgeStyle;rounded=0;orthogonalLoop=1;jettySize=auto;html=1;entryX=0;entryY=0.5;entryDx=0;entryDy=0;" edge="1" parent="WIyWlLk6GJQsqaUBKTNV-1" target="2QtfB7DwklIOwOCEW9_u-93">
          <mxGeometry relative="1" as="geometry">
            <mxPoint x="2084" y="419.97" as="sourcePoint" />
            <mxPoint x="1964.0000000000002" y="389.97" as="targetPoint" />
            <Array as="points">
              <mxPoint x="2084" y="469.97" />
              <mxPoint x="1960.0000000000002" y="469.97" />
              <mxPoint x="1960.0000000000002" y="344.97" />
            </Array>
          </mxGeometry>
        </mxCell>
        <mxCell id="2QtfB7DwklIOwOCEW9_u-97" value="a[i] = rand() % 100;" style="rounded=0;whiteSpace=wrap;html=1;" vertex="1" parent="WIyWlLk6GJQsqaUBKTNV-1">
          <mxGeometry x="2024.0000000000002" y="389.97" width="120" height="30" as="geometry" />
        </mxCell>
        <mxCell id="2QtfB7DwklIOwOCEW9_u-98" value="cout &amp;lt;&amp;lt; &quot;Изначальный массив: &quot;;" style="shape=parallelogram;perimeter=parallelogramPerimeter;whiteSpace=wrap;html=1;fixedSize=1;" vertex="1" parent="WIyWlLk6GJQsqaUBKTNV-1">
          <mxGeometry x="2214" y="429.97" width="210" height="40" as="geometry" />
        </mxCell>
        <mxCell id="2QtfB7DwklIOwOCEW9_u-99" value="" style="edgeStyle=orthogonalEdgeStyle;rounded=0;orthogonalLoop=1;jettySize=auto;html=1;" edge="1" parent="WIyWlLk6GJQsqaUBKTNV-1">
          <mxGeometry relative="1" as="geometry">
            <mxPoint x="2328.0014285714287" y="469.97" as="sourcePoint" />
            <mxPoint x="2328.0014285714287" y="489.97" as="targetPoint" />
          </mxGeometry>
        </mxCell>
        <mxCell id="2QtfB7DwklIOwOCEW9_u-100" style="edgeStyle=orthogonalEdgeStyle;rounded=0;orthogonalLoop=1;jettySize=auto;html=1;exitX=1;exitY=0.5;exitDx=0;exitDy=0;entryX=0.5;entryY=0;entryDx=0;entryDy=0;" edge="1" parent="WIyWlLk6GJQsqaUBKTNV-1" source="2QtfB7DwklIOwOCEW9_u-101" target="2QtfB7DwklIOwOCEW9_u-110">
          <mxGeometry relative="1" as="geometry">
            <mxPoint x="2578.0014285714287" y="599.97" as="targetPoint" />
          </mxGeometry>
        </mxCell>
        <mxCell id="2QtfB7DwklIOwOCEW9_u-101" value="" style="verticalLabelPosition=bottom;verticalAlign=top;html=1;shape=hexagon;perimeter=hexagonPerimeter2;arcSize=6;size=0.11951219512195121;" vertex="1" parent="WIyWlLk6GJQsqaUBKTNV-1">
          <mxGeometry x="2223.5014285714287" y="489.97" width="205" height="50" as="geometry" />
        </mxCell>
        <mxCell id="2QtfB7DwklIOwOCEW9_u-102" value="" style="edgeStyle=orthogonalEdgeStyle;rounded=0;orthogonalLoop=1;jettySize=auto;html=1;" edge="1" parent="WIyWlLk6GJQsqaUBKTNV-1">
          <mxGeometry relative="1" as="geometry">
            <mxPoint x="2327.761428571429" y="539.97" as="sourcePoint" />
            <mxPoint x="2328.0014285714287" y="559.97" as="targetPoint" />
          </mxGeometry>
        </mxCell>
        <mxCell id="2QtfB7DwklIOwOCEW9_u-103" value="for (int i = 0; i &amp;lt; n; i++)" style="text;html=1;align=center;verticalAlign=middle;whiteSpace=wrap;rounded=0;" vertex="1" parent="WIyWlLk6GJQsqaUBKTNV-1">
          <mxGeometry x="2268.0014285714287" y="499.97" width="120" height="30" as="geometry" />
        </mxCell>
        <mxCell id="2QtfB7DwklIOwOCEW9_u-104" value="" style="edgeStyle=orthogonalEdgeStyle;rounded=0;orthogonalLoop=1;jettySize=auto;html=1;entryX=0;entryY=0.5;entryDx=0;entryDy=0;" edge="1" parent="WIyWlLk6GJQsqaUBKTNV-1" target="2QtfB7DwklIOwOCEW9_u-101">
          <mxGeometry relative="1" as="geometry">
            <mxPoint x="2328.0014285714287" y="589.97" as="sourcePoint" />
            <mxPoint x="2208.0014285714287" y="559.97" as="targetPoint" />
            <Array as="points">
              <mxPoint x="2328.0014285714287" y="639.97" />
              <mxPoint x="2204.0014285714287" y="639.97" />
              <mxPoint x="2204.0014285714287" y="514.97" />
            </Array>
          </mxGeometry>
        </mxCell>
        <mxCell id="2QtfB7DwklIOwOCEW9_u-105" value="cout &amp;lt;&amp;lt; a[i] &amp;lt;&amp;lt; &#39; &#39;;" style="shape=parallelogram;perimeter=parallelogramPerimeter;whiteSpace=wrap;html=1;fixedSize=1;" vertex="1" parent="WIyWlLk6GJQsqaUBKTNV-1">
          <mxGeometry x="2223.5" y="559.97" width="210" height="40" as="geometry" />
        </mxCell>
        <mxCell id="2QtfB7DwklIOwOCEW9_u-107" value="{" style="text;html=1;align=center;verticalAlign=middle;resizable=0;points=[];autosize=1;strokeColor=none;fillColor=none;" vertex="1" parent="WIyWlLk6GJQsqaUBKTNV-1">
          <mxGeometry x="2029.0000000000002" y="137.97" width="30" height="30" as="geometry" />
        </mxCell>
        <mxCell id="2QtfB7DwklIOwOCEW9_u-130" style="edgeStyle=orthogonalEdgeStyle;rounded=0;orthogonalLoop=1;jettySize=auto;html=1;exitX=1;exitY=0.5;exitDx=0;exitDy=0;entryX=0.532;entryY=-0.024;entryDx=0;entryDy=0;entryPerimeter=0;" edge="1" parent="WIyWlLk6GJQsqaUBKTNV-1" source="2QtfB7DwklIOwOCEW9_u-110" target="2QtfB7DwklIOwOCEW9_u-131">
          <mxGeometry relative="1" as="geometry">
            <mxPoint x="3060" y="645" as="targetPoint" />
          </mxGeometry>
        </mxCell>
        <mxCell id="2QtfB7DwklIOwOCEW9_u-110" value="" style="verticalLabelPosition=bottom;verticalAlign=top;html=1;shape=hexagon;perimeter=hexagonPerimeter2;arcSize=6;size=0.11951219512195121;" vertex="1" parent="WIyWlLk6GJQsqaUBKTNV-1">
          <mxGeometry x="2579.4714285714285" y="620" width="205" height="50" as="geometry" />
        </mxCell>
        <mxCell id="2QtfB7DwklIOwOCEW9_u-111" value="" style="edgeStyle=orthogonalEdgeStyle;rounded=0;orthogonalLoop=1;jettySize=auto;html=1;" edge="1" parent="WIyWlLk6GJQsqaUBKTNV-1">
          <mxGeometry relative="1" as="geometry">
            <mxPoint x="2683.7314285714283" y="670" as="sourcePoint" />
            <mxPoint x="2683.9714285714285" y="690" as="targetPoint" />
          </mxGeometry>
        </mxCell>
        <mxCell id="2QtfB7DwklIOwOCEW9_u-112" value="for (int i = 0; i &amp;lt; n; i++)" style="text;html=1;align=center;verticalAlign=middle;whiteSpace=wrap;rounded=0;" vertex="1" parent="WIyWlLk6GJQsqaUBKTNV-1">
          <mxGeometry x="2623.9714285714285" y="630" width="120" height="30" as="geometry" />
        </mxCell>
        <mxCell id="2QtfB7DwklIOwOCEW9_u-118" style="edgeStyle=orthogonalEdgeStyle;rounded=0;orthogonalLoop=1;jettySize=auto;html=1;exitX=0.5;exitY=1;exitDx=0;exitDy=0;entryX=0.5;entryY=0;entryDx=0;entryDy=0;" edge="1" parent="WIyWlLk6GJQsqaUBKTNV-1" source="2QtfB7DwklIOwOCEW9_u-115" target="2QtfB7DwklIOwOCEW9_u-117">
          <mxGeometry relative="1" as="geometry" />
        </mxCell>
        <mxCell id="2QtfB7DwklIOwOCEW9_u-129" style="edgeStyle=orthogonalEdgeStyle;rounded=0;orthogonalLoop=1;jettySize=auto;html=1;exitX=1;exitY=0.5;exitDx=0;exitDy=0;entryX=0;entryY=0.5;entryDx=0;entryDy=0;" edge="1" parent="WIyWlLk6GJQsqaUBKTNV-1" source="2QtfB7DwklIOwOCEW9_u-115" target="2QtfB7DwklIOwOCEW9_u-110">
          <mxGeometry relative="1" as="geometry">
            <mxPoint x="2870" y="1070" as="targetPoint" />
            <Array as="points">
              <mxPoint x="2840" y="715" />
              <mxPoint x="2840" y="1070" />
              <mxPoint x="2380" y="1070" />
              <mxPoint x="2380" y="645" />
            </Array>
          </mxGeometry>
        </mxCell>
        <mxCell id="2QtfB7DwklIOwOCEW9_u-115" value="" style="verticalLabelPosition=bottom;verticalAlign=top;html=1;shape=hexagon;perimeter=hexagonPerimeter2;arcSize=6;size=0.11951219512195121;" vertex="1" parent="WIyWlLk6GJQsqaUBKTNV-1">
          <mxGeometry x="2581.4714285714285" y="690" width="205" height="50" as="geometry" />
        </mxCell>
        <mxCell id="2QtfB7DwklIOwOCEW9_u-116" value="for (int j = n - 1; j &amp;gt; i; j--)" style="text;html=1;align=center;verticalAlign=middle;whiteSpace=wrap;rounded=0;" vertex="1" parent="WIyWlLk6GJQsqaUBKTNV-1">
          <mxGeometry x="2621.97" y="699.97" width="128.03" height="30" as="geometry" />
        </mxCell>
        <mxCell id="2QtfB7DwklIOwOCEW9_u-119" style="edgeStyle=orthogonalEdgeStyle;rounded=0;orthogonalLoop=1;jettySize=auto;html=1;exitX=0;exitY=0.5;exitDx=0;exitDy=0;" edge="1" parent="WIyWlLk6GJQsqaUBKTNV-1" source="2QtfB7DwklIOwOCEW9_u-117">
          <mxGeometry relative="1" as="geometry">
            <mxPoint x="2500" y="850" as="targetPoint" />
          </mxGeometry>
        </mxCell>
        <mxCell id="2QtfB7DwklIOwOCEW9_u-127" style="edgeStyle=orthogonalEdgeStyle;rounded=0;orthogonalLoop=1;jettySize=auto;html=1;exitX=1;exitY=0.5;exitDx=0;exitDy=0;" edge="1" parent="WIyWlLk6GJQsqaUBKTNV-1" source="2QtfB7DwklIOwOCEW9_u-117">
          <mxGeometry relative="1" as="geometry">
            <mxPoint x="2680" y="1000" as="targetPoint" />
            <Array as="points">
              <mxPoint x="2810" y="800" />
              <mxPoint x="2810" y="1000" />
            </Array>
          </mxGeometry>
        </mxCell>
        <mxCell id="2QtfB7DwklIOwOCEW9_u-117" value="if (a[j] &amp;lt; a[j - 1])" style="rhombus;whiteSpace=wrap;html=1;" vertex="1" parent="WIyWlLk6GJQsqaUBKTNV-1">
          <mxGeometry x="2610" y="760" width="140" height="80" as="geometry" />
        </mxCell>
        <mxCell id="2QtfB7DwklIOwOCEW9_u-121" style="edgeStyle=orthogonalEdgeStyle;rounded=0;orthogonalLoop=1;jettySize=auto;html=1;exitX=0.5;exitY=1;exitDx=0;exitDy=0;" edge="1" parent="WIyWlLk6GJQsqaUBKTNV-1" source="2QtfB7DwklIOwOCEW9_u-120">
          <mxGeometry relative="1" as="geometry">
            <mxPoint x="2500" y="900" as="targetPoint" />
          </mxGeometry>
        </mxCell>
        <mxCell id="2QtfB7DwklIOwOCEW9_u-120" value="int temp = a[j];" style="rounded=0;whiteSpace=wrap;html=1;" vertex="1" parent="WIyWlLk6GJQsqaUBKTNV-1">
          <mxGeometry x="2440" y="850" width="120" height="30" as="geometry" />
        </mxCell>
        <mxCell id="2QtfB7DwklIOwOCEW9_u-122" style="edgeStyle=orthogonalEdgeStyle;rounded=0;orthogonalLoop=1;jettySize=auto;html=1;exitX=0.5;exitY=1;exitDx=0;exitDy=0;" edge="1" parent="WIyWlLk6GJQsqaUBKTNV-1" source="2QtfB7DwklIOwOCEW9_u-123">
          <mxGeometry relative="1" as="geometry">
            <mxPoint x="2500" y="950" as="targetPoint" />
          </mxGeometry>
        </mxCell>
        <mxCell id="2QtfB7DwklIOwOCEW9_u-123" value="a[j] = a[j - 1];" style="rounded=0;whiteSpace=wrap;html=1;" vertex="1" parent="WIyWlLk6GJQsqaUBKTNV-1">
          <mxGeometry x="2440" y="900" width="120" height="30" as="geometry" />
        </mxCell>
        <mxCell id="2QtfB7DwklIOwOCEW9_u-124" style="edgeStyle=orthogonalEdgeStyle;rounded=0;orthogonalLoop=1;jettySize=auto;html=1;exitX=0.5;exitY=1;exitDx=0;exitDy=0;" edge="1" parent="WIyWlLk6GJQsqaUBKTNV-1" source="2QtfB7DwklIOwOCEW9_u-125">
          <mxGeometry relative="1" as="geometry">
            <mxPoint x="2680" y="1000" as="targetPoint" />
            <Array as="points">
              <mxPoint x="2500" y="1000" />
            </Array>
          </mxGeometry>
        </mxCell>
        <mxCell id="2QtfB7DwklIOwOCEW9_u-125" value="a[j - 1] = temp;" style="rounded=0;whiteSpace=wrap;html=1;" vertex="1" parent="WIyWlLk6GJQsqaUBKTNV-1">
          <mxGeometry x="2440" y="950" width="120" height="30" as="geometry" />
        </mxCell>
        <mxCell id="2QtfB7DwklIOwOCEW9_u-126" value="1" style="text;html=1;align=center;verticalAlign=middle;resizable=0;points=[];autosize=1;strokeColor=none;fillColor=none;" vertex="1" parent="WIyWlLk6GJQsqaUBKTNV-1">
          <mxGeometry x="2595" y="768" width="30" height="30" as="geometry" />
        </mxCell>
        <mxCell id="2QtfB7DwklIOwOCEW9_u-128" value="" style="endArrow=classic;html=1;rounded=0;entryX=0;entryY=0.5;entryDx=0;entryDy=0;" edge="1" parent="WIyWlLk6GJQsqaUBKTNV-1" target="2QtfB7DwklIOwOCEW9_u-115">
          <mxGeometry width="50" height="50" relative="1" as="geometry">
            <mxPoint x="2680" y="1000" as="sourcePoint" />
            <mxPoint x="2680" y="1020" as="targetPoint" />
            <Array as="points">
              <mxPoint x="2680" y="1040" />
              <mxPoint x="2400" y="1040" />
              <mxPoint x="2400" y="715" />
            </Array>
          </mxGeometry>
        </mxCell>
        <mxCell id="2QtfB7DwklIOwOCEW9_u-131" value="cout &amp;lt;&amp;lt; endl &amp;lt;&amp;lt; &quot;Отсортированный массив: &quot;;" style="shape=parallelogram;perimeter=parallelogramPerimeter;whiteSpace=wrap;html=1;fixedSize=1;" vertex="1" parent="WIyWlLk6GJQsqaUBKTNV-1">
          <mxGeometry x="2990" y="689.97" width="280" height="40" as="geometry" />
        </mxCell>
        <mxCell id="2QtfB7DwklIOwOCEW9_u-132" value="" style="edgeStyle=orthogonalEdgeStyle;rounded=0;orthogonalLoop=1;jettySize=auto;html=1;" edge="1" parent="WIyWlLk6GJQsqaUBKTNV-1">
          <mxGeometry relative="1" as="geometry">
            <mxPoint x="3134.0014285714287" y="730" as="sourcePoint" />
            <mxPoint x="3134.0014285714287" y="750" as="targetPoint" />
          </mxGeometry>
        </mxCell>
        <mxCell id="2QtfB7DwklIOwOCEW9_u-133" style="edgeStyle=orthogonalEdgeStyle;rounded=0;orthogonalLoop=1;jettySize=auto;html=1;exitX=1;exitY=0.5;exitDx=0;exitDy=0;" edge="1" source="2QtfB7DwklIOwOCEW9_u-134" parent="WIyWlLk6GJQsqaUBKTNV-1">
          <mxGeometry relative="1" as="geometry">
            <mxPoint x="3384.0014285714287" y="860" as="targetPoint" />
          </mxGeometry>
        </mxCell>
        <mxCell id="2QtfB7DwklIOwOCEW9_u-134" value="" style="verticalLabelPosition=bottom;verticalAlign=top;html=1;shape=hexagon;perimeter=hexagonPerimeter2;arcSize=6;size=0.11951219512195121;" vertex="1" parent="WIyWlLk6GJQsqaUBKTNV-1">
          <mxGeometry x="3029.5014285714287" y="750" width="205" height="50" as="geometry" />
        </mxCell>
        <mxCell id="2QtfB7DwklIOwOCEW9_u-135" value="" style="edgeStyle=orthogonalEdgeStyle;rounded=0;orthogonalLoop=1;jettySize=auto;html=1;" edge="1" parent="WIyWlLk6GJQsqaUBKTNV-1">
          <mxGeometry relative="1" as="geometry">
            <mxPoint x="3133.7614285714285" y="800" as="sourcePoint" />
            <mxPoint x="3134.0014285714287" y="820" as="targetPoint" />
          </mxGeometry>
        </mxCell>
        <mxCell id="2QtfB7DwklIOwOCEW9_u-136" value="for (int i = 0; i &amp;lt; n; i++)" style="text;html=1;align=center;verticalAlign=middle;whiteSpace=wrap;rounded=0;" vertex="1" parent="WIyWlLk6GJQsqaUBKTNV-1">
          <mxGeometry x="3074.0014285714287" y="760" width="120" height="30" as="geometry" />
        </mxCell>
        <mxCell id="2QtfB7DwklIOwOCEW9_u-137" value="" style="edgeStyle=orthogonalEdgeStyle;rounded=0;orthogonalLoop=1;jettySize=auto;html=1;entryX=0;entryY=0.5;entryDx=0;entryDy=0;" edge="1" target="2QtfB7DwklIOwOCEW9_u-134" parent="WIyWlLk6GJQsqaUBKTNV-1">
          <mxGeometry relative="1" as="geometry">
            <mxPoint x="3134.0014285714287" y="850" as="sourcePoint" />
            <mxPoint x="3014.0014285714287" y="820" as="targetPoint" />
            <Array as="points">
              <mxPoint x="3134.0014285714287" y="900" />
              <mxPoint x="3010.0014285714287" y="900" />
              <mxPoint x="3010.0014285714287" y="775" />
            </Array>
          </mxGeometry>
        </mxCell>
        <mxCell id="2QtfB7DwklIOwOCEW9_u-138" value="cout &amp;lt;&amp;lt; a[i] &amp;lt;&amp;lt; &#39; &#39;;" style="rounded=0;whiteSpace=wrap;html=1;" vertex="1" parent="WIyWlLk6GJQsqaUBKTNV-1">
          <mxGeometry x="3074.0014285714287" y="820" width="120" height="30" as="geometry" />
        </mxCell>
        <mxCell id="2QtfB7DwklIOwOCEW9_u-139" value="return 0;" style="ellipse;whiteSpace=wrap;html=1;" vertex="1" parent="WIyWlLk6GJQsqaUBKTNV-1">
          <mxGeometry x="3320" y="860" width="120" height="50" as="geometry" />
        </mxCell>
        <mxCell id="2QtfB7DwklIOwOCEW9_u-140" value="}" style="text;html=1;align=center;verticalAlign=middle;resizable=0;points=[];autosize=1;strokeColor=none;fillColor=none;" vertex="1" parent="WIyWlLk6GJQsqaUBKTNV-1">
          <mxGeometry x="3425" y="898" width="30" height="30" as="geometry" />
        </mxCell>
        <mxCell id="2QtfB7DwklIOwOCEW9_u-141" value="0" style="text;html=1;align=center;verticalAlign=middle;resizable=0;points=[];autosize=1;strokeColor=none;fillColor=none;" vertex="1" parent="WIyWlLk6GJQsqaUBKTNV-1">
          <mxGeometry x="2743.97" y="770" width="30" height="30" as="geometry" />
        </mxCell>
        <mxCell id="2QtfB7DwklIOwOCEW9_u-143" value="&lt;font color=&quot;#ff0000&quot;&gt;&lt;span style=&quot;font-size: 26px;&quot;&gt;МЕТОД ВЫБОРА&lt;/span&gt;&lt;/font&gt;" style="text;html=1;align=center;verticalAlign=middle;resizable=0;points=[];autosize=1;strokeColor=none;fillColor=none;" vertex="1" parent="WIyWlLk6GJQsqaUBKTNV-1">
          <mxGeometry x="4025" width="230" height="40" as="geometry" />
        </mxCell>
        <mxCell id="2QtfB7DwklIOwOCEW9_u-144" value="" style="edgeStyle=orthogonalEdgeStyle;rounded=0;orthogonalLoop=1;jettySize=auto;html=1;" edge="1" parent="WIyWlLk6GJQsqaUBKTNV-1" source="2QtfB7DwklIOwOCEW9_u-145">
          <mxGeometry relative="1" as="geometry">
            <mxPoint x="4149" y="180" as="targetPoint" />
          </mxGeometry>
        </mxCell>
        <mxCell id="2QtfB7DwklIOwOCEW9_u-145" value="Начало" style="ellipse;whiteSpace=wrap;html=1;" vertex="1" parent="WIyWlLk6GJQsqaUBKTNV-1">
          <mxGeometry x="4089" y="110" width="120" height="40" as="geometry" />
        </mxCell>
        <mxCell id="2QtfB7DwklIOwOCEW9_u-146" value="" style="edgeStyle=orthogonalEdgeStyle;rounded=0;orthogonalLoop=1;jettySize=auto;html=1;" edge="1" parent="WIyWlLk6GJQsqaUBKTNV-1" source="2QtfB7DwklIOwOCEW9_u-147">
          <mxGeometry relative="1" as="geometry">
            <mxPoint x="4149" y="230" as="targetPoint" />
          </mxGeometry>
        </mxCell>
        <mxCell id="2QtfB7DwklIOwOCEW9_u-147" value="int main()" style="shape=process;whiteSpace=wrap;html=1;backgroundOutline=1;" vertex="1" parent="WIyWlLk6GJQsqaUBKTNV-1">
          <mxGeometry x="4089" y="180" width="120" height="30" as="geometry" />
        </mxCell>
        <mxCell id="2QtfB7DwklIOwOCEW9_u-148" value="srand(time(NULL));" style="rounded=0;whiteSpace=wrap;html=1;" vertex="1" parent="WIyWlLk6GJQsqaUBKTNV-1">
          <mxGeometry x="4089" y="230" width="120" height="30" as="geometry" />
        </mxCell>
        <mxCell id="2QtfB7DwklIOwOCEW9_u-149" value="" style="edgeStyle=orthogonalEdgeStyle;rounded=0;orthogonalLoop=1;jettySize=auto;html=1;" edge="1" parent="WIyWlLk6GJQsqaUBKTNV-1">
          <mxGeometry relative="1" as="geometry">
            <mxPoint x="4149" y="260" as="sourcePoint" />
            <mxPoint x="4149" y="280" as="targetPoint" />
          </mxGeometry>
        </mxCell>
        <mxCell id="2QtfB7DwklIOwOCEW9_u-150" value="setlocale(LC_ALL, &quot;Russian&quot;);" style="rounded=0;whiteSpace=wrap;html=1;" vertex="1" parent="WIyWlLk6GJQsqaUBKTNV-1">
          <mxGeometry x="4089" y="280" width="120" height="30" as="geometry" />
        </mxCell>
        <mxCell id="2QtfB7DwklIOwOCEW9_u-151" value="" style="edgeStyle=orthogonalEdgeStyle;rounded=0;orthogonalLoop=1;jettySize=auto;html=1;" edge="1" parent="WIyWlLk6GJQsqaUBKTNV-1">
          <mxGeometry relative="1" as="geometry">
            <mxPoint x="4149" y="310" as="sourcePoint" />
            <mxPoint x="4149" y="330" as="targetPoint" />
          </mxGeometry>
        </mxCell>
        <mxCell id="2QtfB7DwklIOwOCEW9_u-152" value="&lt;div&gt;#include &amp;lt;iostream&amp;gt;&lt;/div&gt;&lt;div&gt;#include &amp;lt;cstdlib&amp;gt;&lt;/div&gt;&lt;div&gt;#include &amp;lt;ctime&amp;gt;&lt;/div&gt;&lt;div&gt;using namespace std;&lt;/div&gt;&lt;div&gt;&lt;div&gt;const int n = 10;&lt;/div&gt;&lt;div&gt;int a[n];&lt;/div&gt;&lt;/div&gt;" style="strokeWidth=2;html=1;shape=mxgraph.flowchart.annotation_2;align=left;labelPosition=right;pointerEvents=1;" vertex="1" parent="WIyWlLk6GJQsqaUBKTNV-1">
          <mxGeometry x="4229" y="110" width="50" height="100" as="geometry" />
        </mxCell>
        <mxCell id="2QtfB7DwklIOwOCEW9_u-153" value="" style="endArrow=none;dashed=1;html=1;rounded=0;entryX=-0.04;entryY=0.503;entryDx=0;entryDy=0;entryPerimeter=0;" edge="1" parent="WIyWlLk6GJQsqaUBKTNV-1" target="2QtfB7DwklIOwOCEW9_u-152">
          <mxGeometry width="50" height="50" relative="1" as="geometry">
            <mxPoint x="4149" y="160" as="sourcePoint" />
            <mxPoint x="4219" y="160" as="targetPoint" />
          </mxGeometry>
        </mxCell>
        <mxCell id="2QtfB7DwklIOwOCEW9_u-154" style="edgeStyle=orthogonalEdgeStyle;rounded=0;orthogonalLoop=1;jettySize=auto;html=1;exitX=1;exitY=0.5;exitDx=0;exitDy=0;entryX=0.538;entryY=-0.006;entryDx=0;entryDy=0;entryPerimeter=0;" edge="1" parent="WIyWlLk6GJQsqaUBKTNV-1" source="2QtfB7DwklIOwOCEW9_u-155" target="2QtfB7DwklIOwOCEW9_u-160">
          <mxGeometry relative="1" as="geometry">
            <mxPoint x="4399" y="440" as="targetPoint" />
          </mxGeometry>
        </mxCell>
        <mxCell id="2QtfB7DwklIOwOCEW9_u-155" value="" style="verticalLabelPosition=bottom;verticalAlign=top;html=1;shape=hexagon;perimeter=hexagonPerimeter2;arcSize=6;size=0.11951219512195121;" vertex="1" parent="WIyWlLk6GJQsqaUBKTNV-1">
          <mxGeometry x="4044.5" y="330" width="205" height="50" as="geometry" />
        </mxCell>
        <mxCell id="2QtfB7DwklIOwOCEW9_u-156" value="" style="edgeStyle=orthogonalEdgeStyle;rounded=0;orthogonalLoop=1;jettySize=auto;html=1;" edge="1" parent="WIyWlLk6GJQsqaUBKTNV-1">
          <mxGeometry relative="1" as="geometry">
            <mxPoint x="4148.76" y="380" as="sourcePoint" />
            <mxPoint x="4149" y="400" as="targetPoint" />
          </mxGeometry>
        </mxCell>
        <mxCell id="2QtfB7DwklIOwOCEW9_u-157" value="for (int i = 0; i &amp;lt; n; i++)" style="text;html=1;align=center;verticalAlign=middle;whiteSpace=wrap;rounded=0;" vertex="1" parent="WIyWlLk6GJQsqaUBKTNV-1">
          <mxGeometry x="4089" y="340" width="120" height="30" as="geometry" />
        </mxCell>
        <mxCell id="2QtfB7DwklIOwOCEW9_u-158" value="" style="edgeStyle=orthogonalEdgeStyle;rounded=0;orthogonalLoop=1;jettySize=auto;html=1;entryX=0;entryY=0.5;entryDx=0;entryDy=0;" edge="1" parent="WIyWlLk6GJQsqaUBKTNV-1" target="2QtfB7DwklIOwOCEW9_u-155">
          <mxGeometry relative="1" as="geometry">
            <mxPoint x="4149" y="430" as="sourcePoint" />
            <mxPoint x="4029" y="400" as="targetPoint" />
            <Array as="points">
              <mxPoint x="4149" y="480" />
              <mxPoint x="4025" y="480" />
              <mxPoint x="4025" y="355" />
            </Array>
          </mxGeometry>
        </mxCell>
        <mxCell id="2QtfB7DwklIOwOCEW9_u-159" value="a[i] = rand() % 100;" style="rounded=0;whiteSpace=wrap;html=1;" vertex="1" parent="WIyWlLk6GJQsqaUBKTNV-1">
          <mxGeometry x="4089" y="400" width="120" height="30" as="geometry" />
        </mxCell>
        <mxCell id="2QtfB7DwklIOwOCEW9_u-160" value="cout &amp;lt;&amp;lt; &quot;Изначальный массив: &quot;;" style="shape=parallelogram;perimeter=parallelogramPerimeter;whiteSpace=wrap;html=1;fixedSize=1;" vertex="1" parent="WIyWlLk6GJQsqaUBKTNV-1">
          <mxGeometry x="4279" y="440" width="210" height="40" as="geometry" />
        </mxCell>
        <mxCell id="2QtfB7DwklIOwOCEW9_u-161" value="" style="edgeStyle=orthogonalEdgeStyle;rounded=0;orthogonalLoop=1;jettySize=auto;html=1;" edge="1" parent="WIyWlLk6GJQsqaUBKTNV-1">
          <mxGeometry relative="1" as="geometry">
            <mxPoint x="4393.001428571429" y="480" as="sourcePoint" />
            <mxPoint x="4393.001428571429" y="500" as="targetPoint" />
          </mxGeometry>
        </mxCell>
        <mxCell id="2QtfB7DwklIOwOCEW9_u-178" style="edgeStyle=orthogonalEdgeStyle;rounded=0;orthogonalLoop=1;jettySize=auto;html=1;exitX=1;exitY=0.5;exitDx=0;exitDy=0;entryX=0.532;entryY=-0.015;entryDx=0;entryDy=0;entryPerimeter=0;" edge="1" parent="WIyWlLk6GJQsqaUBKTNV-1" source="2QtfB7DwklIOwOCEW9_u-162" target="2QtfB7DwklIOwOCEW9_u-169">
          <mxGeometry relative="1" as="geometry">
            <mxPoint x="4700" y="590" as="targetPoint" />
          </mxGeometry>
        </mxCell>
        <mxCell id="2QtfB7DwklIOwOCEW9_u-162" value="" style="verticalLabelPosition=bottom;verticalAlign=top;html=1;shape=hexagon;perimeter=hexagonPerimeter2;arcSize=6;size=0.11951219512195121;" vertex="1" parent="WIyWlLk6GJQsqaUBKTNV-1">
          <mxGeometry x="4288.501428571429" y="500" width="205" height="50" as="geometry" />
        </mxCell>
        <mxCell id="2QtfB7DwklIOwOCEW9_u-163" value="" style="edgeStyle=orthogonalEdgeStyle;rounded=0;orthogonalLoop=1;jettySize=auto;html=1;" edge="1" parent="WIyWlLk6GJQsqaUBKTNV-1">
          <mxGeometry relative="1" as="geometry">
            <mxPoint x="4392.761428571429" y="550" as="sourcePoint" />
            <mxPoint x="4393.001428571429" y="570" as="targetPoint" />
          </mxGeometry>
        </mxCell>
        <mxCell id="2QtfB7DwklIOwOCEW9_u-164" value="for (int i = 0; i &amp;lt; n; i++)" style="text;html=1;align=center;verticalAlign=middle;whiteSpace=wrap;rounded=0;" vertex="1" parent="WIyWlLk6GJQsqaUBKTNV-1">
          <mxGeometry x="4333.001428571429" y="510" width="120" height="30" as="geometry" />
        </mxCell>
        <mxCell id="2QtfB7DwklIOwOCEW9_u-165" value="" style="edgeStyle=orthogonalEdgeStyle;rounded=0;orthogonalLoop=1;jettySize=auto;html=1;entryX=0;entryY=0.5;entryDx=0;entryDy=0;" edge="1" parent="WIyWlLk6GJQsqaUBKTNV-1" target="2QtfB7DwklIOwOCEW9_u-162">
          <mxGeometry relative="1" as="geometry">
            <mxPoint x="4393.001428571429" y="600" as="sourcePoint" />
            <mxPoint x="4273.001428571429" y="570" as="targetPoint" />
            <Array as="points">
              <mxPoint x="4393.001428571429" y="650" />
              <mxPoint x="4269.001428571429" y="650" />
              <mxPoint x="4269.001428571429" y="525" />
            </Array>
          </mxGeometry>
        </mxCell>
        <mxCell id="2QtfB7DwklIOwOCEW9_u-166" value="cout &amp;lt;&amp;lt; a[i] &amp;lt;&amp;lt; &#39; &#39;;" style="shape=parallelogram;perimeter=parallelogramPerimeter;whiteSpace=wrap;html=1;fixedSize=1;" vertex="1" parent="WIyWlLk6GJQsqaUBKTNV-1">
          <mxGeometry x="4288.5" y="570" width="210" height="40" as="geometry" />
        </mxCell>
        <mxCell id="2QtfB7DwklIOwOCEW9_u-167" value="{" style="text;html=1;align=center;verticalAlign=middle;resizable=0;points=[];autosize=1;strokeColor=none;fillColor=none;" vertex="1" parent="WIyWlLk6GJQsqaUBKTNV-1">
          <mxGeometry x="4094" y="148" width="30" height="30" as="geometry" />
        </mxCell>
        <mxCell id="2QtfB7DwklIOwOCEW9_u-213" style="edgeStyle=orthogonalEdgeStyle;rounded=0;orthogonalLoop=1;jettySize=auto;html=1;exitX=1;exitY=0.5;exitDx=0;exitDy=0;" edge="1" parent="WIyWlLk6GJQsqaUBKTNV-1" source="2QtfB7DwklIOwOCEW9_u-169">
          <mxGeometry relative="1" as="geometry">
            <mxPoint x="5260" y="690" as="targetPoint" />
          </mxGeometry>
        </mxCell>
        <mxCell id="2QtfB7DwklIOwOCEW9_u-169" value="" style="verticalLabelPosition=bottom;verticalAlign=top;html=1;shape=hexagon;perimeter=hexagonPerimeter2;arcSize=6;size=0.11951219512195121;" vertex="1" parent="WIyWlLk6GJQsqaUBKTNV-1">
          <mxGeometry x="4629.961428571429" y="599.97" width="205" height="50" as="geometry" />
        </mxCell>
        <mxCell id="2QtfB7DwklIOwOCEW9_u-170" value="" style="edgeStyle=orthogonalEdgeStyle;rounded=0;orthogonalLoop=1;jettySize=auto;html=1;" edge="1" parent="WIyWlLk6GJQsqaUBKTNV-1">
          <mxGeometry relative="1" as="geometry">
            <mxPoint x="4740.511428571429" y="649.97" as="sourcePoint" />
            <mxPoint x="4740.751428571429" y="669.97" as="targetPoint" />
          </mxGeometry>
        </mxCell>
        <mxCell id="2QtfB7DwklIOwOCEW9_u-171" value="for (int i = 0; i &amp;lt; n - 1; i++)" style="text;html=1;align=center;verticalAlign=middle;whiteSpace=wrap;rounded=0;" vertex="1" parent="WIyWlLk6GJQsqaUBKTNV-1">
          <mxGeometry x="4650.51" y="609.97" width="170" height="30" as="geometry" />
        </mxCell>
        <mxCell id="2QtfB7DwklIOwOCEW9_u-174" value="" style="verticalLabelPosition=bottom;verticalAlign=top;html=1;shape=hexagon;perimeter=hexagonPerimeter2;arcSize=6;size=0.11951219512195121;" vertex="1" parent="WIyWlLk6GJQsqaUBKTNV-1">
          <mxGeometry x="4640.511428571429" y="719.94" width="205" height="50" as="geometry" />
        </mxCell>
        <mxCell id="2QtfB7DwklIOwOCEW9_u-175" value="for (int j = i + 1; j &amp;lt; n; j++)" style="text;html=1;align=center;verticalAlign=middle;whiteSpace=wrap;rounded=0;" vertex="1" parent="WIyWlLk6GJQsqaUBKTNV-1">
          <mxGeometry x="4669.06" y="729.94" width="150" height="30" as="geometry" />
        </mxCell>
        <mxCell id="2QtfB7DwklIOwOCEW9_u-177" style="edgeStyle=orthogonalEdgeStyle;rounded=0;orthogonalLoop=1;jettySize=auto;html=1;exitX=0.5;exitY=1;exitDx=0;exitDy=0;entryX=0.5;entryY=0;entryDx=0;entryDy=0;" edge="1" parent="WIyWlLk6GJQsqaUBKTNV-1" source="2QtfB7DwklIOwOCEW9_u-176" target="2QtfB7DwklIOwOCEW9_u-174">
          <mxGeometry relative="1" as="geometry" />
        </mxCell>
        <mxCell id="2QtfB7DwklIOwOCEW9_u-176" value="int min = i;" style="rounded=0;whiteSpace=wrap;html=1;" vertex="1" parent="WIyWlLk6GJQsqaUBKTNV-1">
          <mxGeometry x="4683.01" y="669.97" width="120" height="30" as="geometry" />
        </mxCell>
        <mxCell id="2QtfB7DwklIOwOCEW9_u-191" style="edgeStyle=orthogonalEdgeStyle;rounded=0;orthogonalLoop=1;jettySize=auto;html=1;exitX=0.5;exitY=1;exitDx=0;exitDy=0;entryX=0.5;entryY=0;entryDx=0;entryDy=0;" edge="1" parent="WIyWlLk6GJQsqaUBKTNV-1" target="2QtfB7DwklIOwOCEW9_u-194">
          <mxGeometry relative="1" as="geometry">
            <mxPoint x="4743.96" y="769.94" as="sourcePoint" />
          </mxGeometry>
        </mxCell>
        <mxCell id="2QtfB7DwklIOwOCEW9_u-192" style="edgeStyle=orthogonalEdgeStyle;rounded=0;orthogonalLoop=1;jettySize=auto;html=1;exitX=0;exitY=0.5;exitDx=0;exitDy=0;" edge="1" parent="WIyWlLk6GJQsqaUBKTNV-1" source="2QtfB7DwklIOwOCEW9_u-194">
          <mxGeometry relative="1" as="geometry">
            <mxPoint x="4559.96" y="879.94" as="targetPoint" />
          </mxGeometry>
        </mxCell>
        <mxCell id="2QtfB7DwklIOwOCEW9_u-193" style="edgeStyle=orthogonalEdgeStyle;rounded=0;orthogonalLoop=1;jettySize=auto;html=1;exitX=1;exitY=0.5;exitDx=0;exitDy=0;" edge="1" parent="WIyWlLk6GJQsqaUBKTNV-1" source="2QtfB7DwklIOwOCEW9_u-194">
          <mxGeometry relative="1" as="geometry">
            <mxPoint x="4719.96" y="929.94" as="targetPoint" />
            <Array as="points">
              <mxPoint x="4869.96" y="829.94" />
              <mxPoint x="4869.96" y="929.94" />
              <mxPoint x="4739.96" y="929.94" />
            </Array>
          </mxGeometry>
        </mxCell>
        <mxCell id="2QtfB7DwklIOwOCEW9_u-194" value="if (a[j] &amp;lt; a[min])" style="rhombus;whiteSpace=wrap;html=1;" vertex="1" parent="WIyWlLk6GJQsqaUBKTNV-1">
          <mxGeometry x="4669.96" y="789.94" width="140" height="80" as="geometry" />
        </mxCell>
        <mxCell id="2QtfB7DwklIOwOCEW9_u-195" style="edgeStyle=orthogonalEdgeStyle;rounded=0;orthogonalLoop=1;jettySize=auto;html=1;exitX=0.5;exitY=1;exitDx=0;exitDy=0;" edge="1" parent="WIyWlLk6GJQsqaUBKTNV-1" source="2QtfB7DwklIOwOCEW9_u-196">
          <mxGeometry relative="1" as="geometry">
            <mxPoint x="4719.96" y="929.94" as="targetPoint" />
            <Array as="points">
              <mxPoint x="4559.96" y="929.94" />
            </Array>
          </mxGeometry>
        </mxCell>
        <mxCell id="2QtfB7DwklIOwOCEW9_u-196" value="min = j;" style="rounded=0;whiteSpace=wrap;html=1;" vertex="1" parent="WIyWlLk6GJQsqaUBKTNV-1">
          <mxGeometry x="4499.96" y="879.94" width="120" height="30" as="geometry" />
        </mxCell>
        <mxCell id="2QtfB7DwklIOwOCEW9_u-201" value="1" style="text;html=1;align=center;verticalAlign=middle;resizable=0;points=[];autosize=1;strokeColor=none;fillColor=none;" vertex="1" parent="WIyWlLk6GJQsqaUBKTNV-1">
          <mxGeometry x="4654.96" y="797.94" width="30" height="30" as="geometry" />
        </mxCell>
        <mxCell id="2QtfB7DwklIOwOCEW9_u-202" value="0" style="text;html=1;align=center;verticalAlign=middle;resizable=0;points=[];autosize=1;strokeColor=none;fillColor=none;" vertex="1" parent="WIyWlLk6GJQsqaUBKTNV-1">
          <mxGeometry x="4803.929999999999" y="799.94" width="30" height="30" as="geometry" />
        </mxCell>
        <mxCell id="2QtfB7DwklIOwOCEW9_u-203" value="int temp = a[min];" style="rounded=0;whiteSpace=wrap;html=1;" vertex="1" parent="WIyWlLk6GJQsqaUBKTNV-1">
          <mxGeometry x="4910" y="779.97" width="120" height="30" as="geometry" />
        </mxCell>
        <mxCell id="2QtfB7DwklIOwOCEW9_u-204" value="" style="endArrow=classic;html=1;rounded=0;entryX=0;entryY=0.5;entryDx=0;entryDy=0;" edge="1" parent="WIyWlLk6GJQsqaUBKTNV-1" target="2QtfB7DwklIOwOCEW9_u-174">
          <mxGeometry width="50" height="50" relative="1" as="geometry">
            <mxPoint x="4719.96" y="929.94" as="sourcePoint" />
            <mxPoint x="4739.96" y="979.94" as="targetPoint" />
            <Array as="points">
              <mxPoint x="4719.96" y="969.94" />
              <mxPoint x="4479.96" y="969.94" />
              <mxPoint x="4479.96" y="744.94" />
            </Array>
          </mxGeometry>
        </mxCell>
        <mxCell id="2QtfB7DwklIOwOCEW9_u-205" value="a[min] = a[i];" style="rounded=0;whiteSpace=wrap;html=1;" vertex="1" parent="WIyWlLk6GJQsqaUBKTNV-1">
          <mxGeometry x="4910" y="839.97" width="120" height="30" as="geometry" />
        </mxCell>
        <mxCell id="2QtfB7DwklIOwOCEW9_u-206" value="" style="endArrow=classic;html=1;rounded=0;entryX=0.542;entryY=0;entryDx=0;entryDy=0;entryPerimeter=0;" edge="1" parent="WIyWlLk6GJQsqaUBKTNV-1" target="2QtfB7DwklIOwOCEW9_u-205">
          <mxGeometry width="50" height="50" relative="1" as="geometry">
            <mxPoint x="4975" y="809.97" as="sourcePoint" />
            <mxPoint x="4955" y="799.97" as="targetPoint" />
          </mxGeometry>
        </mxCell>
        <mxCell id="2QtfB7DwklIOwOCEW9_u-212" style="edgeStyle=orthogonalEdgeStyle;rounded=0;orthogonalLoop=1;jettySize=auto;html=1;exitX=0.5;exitY=1;exitDx=0;exitDy=0;entryX=0;entryY=0.5;entryDx=0;entryDy=0;" edge="1" parent="WIyWlLk6GJQsqaUBKTNV-1" source="2QtfB7DwklIOwOCEW9_u-207" target="2QtfB7DwklIOwOCEW9_u-169">
          <mxGeometry relative="1" as="geometry">
            <Array as="points">
              <mxPoint x="4970" y="1000" />
              <mxPoint x="4450" y="1000" />
              <mxPoint x="4450" y="625" />
            </Array>
          </mxGeometry>
        </mxCell>
        <mxCell id="2QtfB7DwklIOwOCEW9_u-207" value="a[i] = temp;" style="rounded=0;whiteSpace=wrap;html=1;" vertex="1" parent="WIyWlLk6GJQsqaUBKTNV-1">
          <mxGeometry x="4910" y="900" width="120" height="30" as="geometry" />
        </mxCell>
        <mxCell id="2QtfB7DwklIOwOCEW9_u-208" value="" style="endArrow=classic;html=1;rounded=0;entryX=0.542;entryY=0;entryDx=0;entryDy=0;entryPerimeter=0;" edge="1" parent="WIyWlLk6GJQsqaUBKTNV-1" target="2QtfB7DwklIOwOCEW9_u-207">
          <mxGeometry width="50" height="50" relative="1" as="geometry">
            <mxPoint x="4975" y="869.97" as="sourcePoint" />
            <mxPoint x="4955" y="859.97" as="targetPoint" />
          </mxGeometry>
        </mxCell>
        <mxCell id="2QtfB7DwklIOwOCEW9_u-211" style="edgeStyle=orthogonalEdgeStyle;rounded=0;orthogonalLoop=1;jettySize=auto;html=1;exitX=1;exitY=0.5;exitDx=0;exitDy=0;entryX=0.546;entryY=-0.04;entryDx=0;entryDy=0;entryPerimeter=0;" edge="1" parent="WIyWlLk6GJQsqaUBKTNV-1" source="2QtfB7DwklIOwOCEW9_u-174" target="2QtfB7DwklIOwOCEW9_u-203">
          <mxGeometry relative="1" as="geometry" />
        </mxCell>
        <mxCell id="2QtfB7DwklIOwOCEW9_u-214" value="" style="edgeStyle=orthogonalEdgeStyle;rounded=0;orthogonalLoop=1;jettySize=auto;html=1;" edge="1" parent="WIyWlLk6GJQsqaUBKTNV-1">
          <mxGeometry relative="1" as="geometry">
            <mxPoint x="5263.971428571429" y="730" as="sourcePoint" />
            <mxPoint x="5263.971428571429" y="750" as="targetPoint" />
          </mxGeometry>
        </mxCell>
        <mxCell id="2QtfB7DwklIOwOCEW9_u-215" style="edgeStyle=orthogonalEdgeStyle;rounded=0;orthogonalLoop=1;jettySize=auto;html=1;exitX=1;exitY=0.5;exitDx=0;exitDy=0;" edge="1" source="2QtfB7DwklIOwOCEW9_u-216" parent="WIyWlLk6GJQsqaUBKTNV-1">
          <mxGeometry relative="1" as="geometry">
            <mxPoint x="5513.971428571429" y="860" as="targetPoint" />
          </mxGeometry>
        </mxCell>
        <mxCell id="2QtfB7DwklIOwOCEW9_u-216" value="" style="verticalLabelPosition=bottom;verticalAlign=top;html=1;shape=hexagon;perimeter=hexagonPerimeter2;arcSize=6;size=0.11951219512195121;" vertex="1" parent="WIyWlLk6GJQsqaUBKTNV-1">
          <mxGeometry x="5159.471428571429" y="750" width="205" height="50" as="geometry" />
        </mxCell>
        <mxCell id="2QtfB7DwklIOwOCEW9_u-217" value="" style="edgeStyle=orthogonalEdgeStyle;rounded=0;orthogonalLoop=1;jettySize=auto;html=1;" edge="1" parent="WIyWlLk6GJQsqaUBKTNV-1">
          <mxGeometry relative="1" as="geometry">
            <mxPoint x="5263.731428571428" y="800" as="sourcePoint" />
            <mxPoint x="5263.971428571429" y="820" as="targetPoint" />
          </mxGeometry>
        </mxCell>
        <mxCell id="2QtfB7DwklIOwOCEW9_u-218" value="for (int i = 0; i &amp;lt; n; i++)" style="text;html=1;align=center;verticalAlign=middle;whiteSpace=wrap;rounded=0;" vertex="1" parent="WIyWlLk6GJQsqaUBKTNV-1">
          <mxGeometry x="5203.971428571429" y="760" width="120" height="30" as="geometry" />
        </mxCell>
        <mxCell id="2QtfB7DwklIOwOCEW9_u-219" value="" style="edgeStyle=orthogonalEdgeStyle;rounded=0;orthogonalLoop=1;jettySize=auto;html=1;entryX=0;entryY=0.5;entryDx=0;entryDy=0;" edge="1" target="2QtfB7DwklIOwOCEW9_u-216" parent="WIyWlLk6GJQsqaUBKTNV-1">
          <mxGeometry relative="1" as="geometry">
            <mxPoint x="5263.971428571429" y="850" as="sourcePoint" />
            <mxPoint x="5143.971428571429" y="820" as="targetPoint" />
            <Array as="points">
              <mxPoint x="5263.971428571429" y="900" />
              <mxPoint x="5139.971428571429" y="900" />
              <mxPoint x="5139.971428571429" y="775" />
            </Array>
          </mxGeometry>
        </mxCell>
        <mxCell id="2QtfB7DwklIOwOCEW9_u-220" value="a[i] = rand() % 25;" style="rounded=0;whiteSpace=wrap;html=1;" vertex="1" parent="WIyWlLk6GJQsqaUBKTNV-1">
          <mxGeometry x="5203.971428571429" y="820" width="120" height="30" as="geometry" />
        </mxCell>
        <mxCell id="2QtfB7DwklIOwOCEW9_u-221" value="cout &amp;lt;&amp;lt; endl &amp;lt;&amp;lt; &quot;Отсортированный массив: &quot;;" style="shape=parallelogram;perimeter=parallelogramPerimeter;whiteSpace=wrap;html=1;fixedSize=1;" vertex="1" parent="WIyWlLk6GJQsqaUBKTNV-1">
          <mxGeometry x="5130" y="689.94" width="290" height="40" as="geometry" />
        </mxCell>
        <mxCell id="2QtfB7DwklIOwOCEW9_u-222" value="cout &amp;lt;&amp;lt; a[i] &amp;lt;&amp;lt; &#39; &#39;;" style="shape=parallelogram;perimeter=parallelogramPerimeter;whiteSpace=wrap;html=1;fixedSize=1;" vertex="1" parent="WIyWlLk6GJQsqaUBKTNV-1">
          <mxGeometry x="5178.97" y="819.97" width="170" height="40" as="geometry" />
        </mxCell>
        <mxCell id="2QtfB7DwklIOwOCEW9_u-223" value="return 0;" style="ellipse;whiteSpace=wrap;html=1;" vertex="1" parent="WIyWlLk6GJQsqaUBKTNV-1">
          <mxGeometry x="5460" y="860" width="120" height="50" as="geometry" />
        </mxCell>
        <mxCell id="2QtfB7DwklIOwOCEW9_u-224" value="{" style="text;html=1;align=center;verticalAlign=middle;resizable=0;points=[];autosize=1;strokeColor=none;fillColor=none;" vertex="1" parent="WIyWlLk6GJQsqaUBKTNV-1">
          <mxGeometry x="4653.01" y="649.97" width="30" height="30" as="geometry" />
        </mxCell>
        <mxCell id="2QtfB7DwklIOwOCEW9_u-226" value="}" style="text;html=1;align=center;verticalAlign=middle;resizable=0;points=[];autosize=1;strokeColor=none;fillColor=none;" vertex="1" parent="WIyWlLk6GJQsqaUBKTNV-1">
          <mxGeometry x="5005" y="978" width="30" height="30" as="geometry" />
        </mxCell>
        <mxCell id="2QtfB7DwklIOwOCEW9_u-227" value="}" style="text;html=1;align=center;verticalAlign=middle;resizable=0;points=[];autosize=1;strokeColor=none;fillColor=none;" vertex="1" parent="WIyWlLk6GJQsqaUBKTNV-1">
          <mxGeometry x="5570" y="900" width="30" height="30" as="geometry" />
        </mxCell>
        <mxCell id="2QtfB7DwklIOwOCEW9_u-228" value="cout &amp;lt;&amp;lt; a[i] &amp;lt;&amp;lt; &#39; &#39;;" style="shape=parallelogram;perimeter=parallelogramPerimeter;whiteSpace=wrap;html=1;fixedSize=1;" vertex="1" parent="WIyWlLk6GJQsqaUBKTNV-1">
          <mxGeometry x="3030" y="820" width="210" height="40" as="geometry" />
        </mxCell>
      </root>
    </mxGraphModel>
  </diagram>
</mxfile>
